<svg viewBox="0 0 200 200" xmlns="http://www.w3.org/2000/svg" role="img" aria-label="Cline">
  <mask id="cline-eyes-dark" maskUnits="userSpaceOnUse" x="0" y="0" width="200" height="200">
    <rect width="200" height="200" fill="#fff"/>
    <rect x="64" y="92" width="28" height="72" rx="14" fill="#000"/>
    <rect x="108" y="92" width="28" height="72" rx="14" fill="#000"/>
  </mask>
  <g fill="#fafafa" mask="url(#cline-eyes-dark)">
    <circle cx="100" cy="25" r="22"/>
    <path d="M 52 46 L 148 46 A 37 37 0 0 1 185 83 Q 206 120 185 157 A 37 37 0 0 1 148 194 L 52 194 A 37 37 0 0 1 15 157 Q -6 120 15 83 A 37 37 0 0 1 52 46 Z"/>
  </g>
</svg>
