<svg width="128" height="128" viewBox="0 0 128 128" fill="none" xmlns="http://www.w3.org/2000/svg">
  <rect width="128" height="128" rx="28" fill="#FF6D5A"/>
  <path d="M25 78V49.5H36.6V54.1C38.2 51.1 41.9 48.8 46.7 48.8C54.1 48.8 58.8 53.8 58.8 62V78H47V64.1C47 60.4 45.1 58.3 42.1 58.3C38.8 58.3 36.8 60.7 36.8 64.8V78H25Z" fill="white"/>
  <path d="M64.4 78V49.5H76V54.1C77.6 51.1 81.3 48.8 86.1 48.8C93.5 48.8 98.2 53.8 98.2 62V78H86.4V64.1C86.4 60.4 84.5 58.3 81.5 58.3C78.2 58.3 76.2 60.7 76.2 64.8V78H64.4Z" fill="white"/>
  <circle cx="108.5" cy="55.5" r="6.5" fill="white"/>
  <circle cx="108.5" cy="72.5" r="6.5" fill="white"/>
</svg>
