<svg width="256" height="256" viewBox="0 0 256 256" fill="none" xmlns="http://www.w3.org/2000/svg">
  <mask id="vscodeMask" style="mask-type:alpha" maskUnits="userSpaceOnUse" x="0" y="0" width="256" height="256">
    <path fill-rule="evenodd" clip-rule="evenodd" d="M181.534 254.252C185.685 255.871 190.419 255.769 194.583 253.766L246.918 228.589C252.55 225.88 256.13 220.18 256.13 213.927V42.0733C256.13 35.8202 252.55 30.1196 246.918 27.4111L194.583 2.23375C189.118 -0.394272 182.708 0.250773 177.918 3.73831C177.234 4.23643 176.582 4.79114 175.971 5.40239L75.736 96.8576L32.082 63.7287C28.0184 60.6447 22.3382 60.8969 18.5646 64.3267L4.56327 77.0532C-0.0537745 81.2479 -0.0590069 88.5179 4.55369 92.7194L42.405 127.998L4.55369 163.277C-0.0590068 167.478 -0.0537745 174.748 4.56327 178.943L18.5646 191.669C22.3382 195.099 28.0184 195.351 32.082 192.267L75.736 159.138L175.971 250.593C177.578 252.203 179.493 253.428 181.534 254.252ZM192.099 69.9248L116.058 127.998L192.099 186.071V69.9248Z" fill="white"/>
  </mask>
  <g mask="url(#vscodeMask)">
    <path d="M246.985 27.4818L194.61 2.27201C188.55 -0.643539 181.32 0.586948 176.568 5.34197L4.4377 162.683C-0.176389 166.901 -0.171057 174.215 4.45077 178.426L18.4631 191.192C22.2394 194.633 27.9235 194.886 31.9902 191.79L239.265 34.5172C246.219 29.2415 256.13 34.2009 256.13 42.918V42.5184C256.13 36.2755 252.555 30.5837 246.985 27.4818Z" fill="#0065A9"/>
    <path d="M246.985 228.518L194.61 253.728C188.55 256.644 181.32 255.413 176.568 250.658L4.4377 93.3168C-0.176389 89.0985 -0.171057 81.7847 4.45077 77.5736L18.4631 64.8082C22.2394 61.3667 27.9235 61.1138 31.9902 64.2098L239.265 221.483C246.219 226.759 256.13 221.799 256.13 213.082V213.482C256.13 219.725 252.555 225.416 246.985 228.518Z" fill="#007ACC"/>
    <path d="M194.611 253.73C188.55 256.643 181.32 255.412 176.567 250.657C182.423 256.512 192.428 252.363 192.428 244.082V11.9173C192.428 3.63586 182.423 -0.512297 176.567 5.34255C181.32 0.587478 188.55 -0.643513 194.611 2.26959L246.979 27.4451C252.554 30.547 256.13 36.2391 256.13 42.4824V213.515C256.13 219.759 252.554 225.451 246.979 228.553L194.611 253.73Z" fill="#1F9CF0"/>
  </g>
</svg>
